<?xml version="1.0" standalone="no"?>
<!DOCTYPE svg PUBLIC "-//W3C//DTD SVG 20010904//EN"
 "http://www.w3.org/TR/2001/REC-SVG-20010904/DTD/svg10.dtd">
<svg version="1.0" xmlns="http://www.w3.org/2000/svg"
 width="1000.000000pt" height="563.000000pt" viewBox="0 0 1000.000000 563.000000"
 preserveAspectRatio="xMidYMid meet">

<g transform="translate(0.000000,563.000000) scale(0.100000,-0.100000)"
fill="#000000" stroke="none">
<path d="M0 2815 l0 -2815 5000 0 5000 0 0 2815 0 2815 -3126 0 -3127 0 26
-20 c14 -11 28 -20 33 -20 4 0 26 -19 50 -42 23 -24 48 -49 56 -55 29 -28 61
-59 86 -85 14 -16 31 -28 39 -28 7 0 18 -12 23 -26 6 -14 19 -28 30 -31 11 -3
20 -13 21 -22 0 -10 2 -11 6 -3 7 17 23 15 23 -3 0 -8 6 -15 14 -15 8 0 16
-10 18 -22 2 -13 9 -22 16 -21 6 2 12 -3 12 -11 0 -7 16 -26 36 -41 19 -15 33
-33 31 -39 -3 -7 8 -21 24 -30 16 -10 27 -22 24 -27 -4 -5 -2 -9 3 -9 11 0 22
81 22 163 0 42 4 59 15 63 8 4 15 13 15 22 0 13 3 13 12 4 10 -10 10 -17 0
-32 -15 -25 -15 -30 1 -30 8 0 14 -6 14 -14 0 -8 -6 -12 -15 -8 -10 3 -13 1
-8 -6 3 -6 2 -14 -4 -17 -10 -6 -14 -225 -5 -225 2 0 15 4 30 10 24 9 27 7 37
-21 10 -30 12 -31 53 -25 33 5 53 2 88 -15 l46 -22 103 23 c87 20 125 23 243
20 77 -1 173 -3 213 -4 51 -1 72 -5 72 -14 0 -7 7 -15 15 -18 8 -3 17 -15 20
-25 8 -24 44 -64 65 -72 10 -3 10 -6 2 -6 -9 -1 -8 -7 4 -26 9 -14 14 -26 10
-26 -3 -1 -10 -2 -15 -3 -5 0 -13 -4 -17 -9 -11 -10 -26 -9 -19 3 6 9 -61 -15
-80 -30 -5 -4 -20 -6 -32 -5 -13 1 -23 -4 -23 -10 0 -16 -44 -56 -66 -59 -11
-2 -24 1 -30 5 -13 10 -36 -19 -49 -61 -12 -40 -25 -52 -42 -39 -7 7 -16 9
-20 5 -3 -3 -2 -6 4 -6 6 0 13 -7 17 -15 3 -8 0 -14 -6 -12 -7 1 -14 -7 -16
-18 -2 -11 -10 -24 -18 -28 -8 -4 -14 -16 -14 -27 0 -10 -6 -21 -12 -23 -8 -3
-5 -6 6 -6 16 -1 16 -3 -5 -21 -16 -13 -19 -19 -10 -20 11 0 10 -4 -5 -16 -10
-8 -14 -13 -7 -10 6 3 15 -6 21 -22 5 -15 13 -34 16 -43 5 -10 2 -16 -9 -16
-10 0 -14 6 -10 16 4 12 2 12 -9 -2 -10 -14 -15 -15 -19 -5 -3 8 -6 5 -7 -7
-1 -18 -2 -18 -15 5 l-15 25 5 -33 6 -33 -23 20 c-22 21 -44 29 -33 12 3 -6
-4 -8 -16 -6 -26 5 -39 23 -32 42 3 7 1 13 -5 13 -5 0 -13 -11 -16 -25 -3 -13
-16 -29 -29 -35 -21 -11 -21 -10 -3 4 21 17 21 18 -11 35 -26 13 -44 15 -23 1
8 -5 11 -13 6 -17 -4 -4 -19 5 -33 22 -23 26 -25 27 -18 6 5 -17 4 -21 -5 -16
-6 4 -23 8 -37 10 -15 1 -32 10 -38 19 -7 8 -14 13 -17 11 -3 -3 -16 5 -30 18
-14 13 -33 27 -43 31 -9 3 -19 15 -22 26 -6 24 -30 26 -55 3 -18 -16 -18 -16
-12 0 6 16 -10 25 -19 10 -2 -5 -2 -2 -1 5 2 7 -3 15 -11 18 -8 3 -19 21 -25
39 -8 26 -15 32 -28 28 -13 -5 -11 1 7 20 20 22 21 25 5 22 -11 -1 -18 -8 -17
-14 2 -6 -1 -11 -6 -11 -5 0 -13 -10 -17 -22 -3 -12 -15 -35 -26 -52 l-19 -31
2 30 c2 43 -2 72 -8 58 -7 -18 -23 -16 -23 2 0 8 -5 15 -11 15 -5 0 -8 -4 -5
-9 3 -5 -1 -14 -9 -21 -13 -10 -15 -8 -15 13 0 14 -11 35 -25 48 -13 13 -25
30 -25 37 0 7 -4 11 -9 7 -5 -3 -18 8 -27 25 -10 16 -26 30 -36 30 -11 0 -15
5 -12 14 3 8 0 17 -5 21 -6 3 -8 11 -5 17 4 7 2 8 -4 4 -7 -4 -12 -3 -12 3 0
16 -38 23 -62 11 -18 -10 -17 -7 6 14 34 30 30 41 -9 26 -26 -10 -27 -9 -21
13 5 21 2 24 -23 22 -21 -1 -27 2 -24 14 2 10 -13 27 -39 45 -24 17 -47 36
-51 43 -4 7 -15 13 -22 13 -21 0 -19 17 3 24 9 3 -6 4 -33 2 -47 -2 -65 4 -75
29 -4 9 -46 35 -56 35 -10 0 -3 -29 9 -33 7 -3 5 -6 -5 -6 -21 -1 -25 48 -7
66 6 6 8 16 4 23 -10 17 -37 -10 -32 -32 3 -10 1 -18 -4 -18 -13 0 -11 48 2
52 6 2 5 14 -5 33 -9 17 -16 26 -16 20 0 -5 -5 -3 -11 5 -9 13 -10 12 -5 -2 3
-10 9 -25 12 -33 4 -10 2 -15 -6 -13 -7 2 -15 -3 -18 -11 -3 -10 0 -12 12 -8
9 4 16 2 16 -2 0 -5 -5 -11 -12 -13 -18 -6 17 -74 48 -94 28 -19 31 -41 7 -47
-17 -4 -17 -5 0 -6 9 0 17 -7 17 -13 0 -9 4 -8 10 2 8 12 10 11 10 -6 0 -11
11 -31 25 -44 14 -13 25 -29 25 -37 0 -7 7 -13 15 -13 8 0 15 -6 15 -14 0 -8
7 -17 16 -20 8 -3 12 -11 9 -17 -4 -6 2 -13 14 -16 12 -3 21 -13 21 -24 0 -24
20 -25 21 -1 1 9 4 4 8 -13 4 -16 3 -31 -1 -33 -17 -8 -6 -22 29 -39 36 -17
37 -17 13 -24 l-25 -7 25 -1 c20 -1 22 -3 10 -11 -13 -9 -13 -11 0 -20 8 -5
20 -8 27 -6 6 3 14 -2 17 -10 3 -8 13 -14 21 -14 10 0 13 -5 9 -12 -5 -8 -2
-9 9 -5 9 3 19 2 22 -4 4 -5 3 -8 -2 -7 -4 2 -9 -1 -10 -7 -2 -5 1 -10 6 -10
5 0 13 -3 17 -7 4 -5 0 -8 -9 -8 -9 0 -17 -3 -17 -7 1 -16 26 -40 38 -36 19 7
15 -4 -13 -31 -29 -29 -32 -38 -10 -30 8 4 15 2 15 -4 0 -5 10 -12 23 -15 21
-6 21 -5 3 8 -11 8 -17 18 -13 21 11 12 34 -15 41 -46 3 -17 12 -30 20 -30 7
0 16 -7 20 -15 8 -23 26 -18 27 8 0 12 3 16 6 10 2 -7 11 -13 19 -13 8 0 14
-4 14 -9 0 -5 3 -17 6 -26 6 -15 4 -15 -14 -4 -11 7 -18 18 -15 24 4 5 2 7 -2
2 -10 -9 -15 -48 -7 -61 2 -4 8 -3 12 4 6 10 16 7 40 -10 24 -17 29 -25 18
-31 -10 -7 -9 -9 5 -9 9 0 18 6 18 13 1 6 7 -40 14 -103 10 -92 18 -125 41
-164 15 -27 31 -70 35 -96 4 -26 22 -78 40 -116 18 -38 34 -80 36 -94 6 -38
35 -73 87 -100 26 -14 52 -33 56 -41 14 -25 0 -59 -24 -59 -17 0 -18 -2 -6
-10 8 -5 11 -10 5 -10 -5 0 0 -7 12 -15 13 -9 20 -22 17 -30 -4 -8 -1 -15 6
-15 6 0 8 -4 5 -10 -8 -12 -45 10 -45 27 0 7 -4 13 -10 13 -5 0 -10 -4 -10
-10 0 -26 -21 -6 -31 31 -11 35 -15 39 -24 25 -7 -9 -15 -13 -19 -9 -4 4 -4 0
0 -10 3 -10 1 -17 -5 -17 -6 0 -11 -8 -11 -17 0 -15 -2 -14 -16 3 -13 16 -15
16 -10 2 3 -10 1 -18 -4 -18 -5 0 -10 -6 -13 -12 -2 -7 -3 -5 -2 4 3 18 -20
29 -92 48 -24 6 -42 14 -42 18 3 19 -2 25 -11 12 -8 -12 -12 -12 -18 -2 -5 8
-16 10 -28 5 -17 -6 -17 -5 -5 10 17 22 7 34 -14 17 -18 -15 -20 0 -2 19 9 11
9 13 0 7 -8 -5 -13 -1 -13 9 0 9 -5 15 -12 13 -15 -5 -48 22 -48 40 0 14 -78
92 -92 92 -4 0 -8 7 -8 15 0 9 -7 18 -15 21 -8 4 -12 11 -8 17 4 6 1 7 -7 2
-11 -7 -10 -10 1 -19 8 -6 14 -17 15 -23 2 -30 5 -34 14 -28 7 4 9 -2 4 -19
-3 -15 -1 -32 5 -40 7 -8 11 -18 10 -22 -3 -21 2 -35 11 -29 11 7 14 -13 11
-59 -2 -23 0 -28 14 -22 14 5 16 2 12 -15 -7 -26 10 -62 24 -54 5 4 9 2 9 -4
0 -5 -4 -12 -10 -16 -5 -3 -7 -12 -3 -21 3 -8 8 -13 10 -10 9 9 43 -29 43 -49
0 -17 2 -18 11 -5 9 12 10 12 5 -3 -3 -10 -6 -23 -6 -28 0 -22 -19 -6 -25 21
-4 17 -13 30 -21 30 -8 0 -14 7 -14 15 0 9 -7 18 -15 21 -8 4 -15 13 -15 20 0
8 -7 17 -15 20 -8 4 -15 11 -15 16 0 6 -18 32 -40 58 -22 26 -40 53 -40 59 0
6 -4 11 -10 11 -5 0 -10 4 -10 10 0 12 -161 254 -172 258 -4 2 -8 9 -8 16 0
10 -52 90 -70 106 -11 11 -70 99 -70 105 0 3 -6 13 -12 20 -20 22 -31 37 -63
85 -16 25 -33 47 -36 50 -4 3 -9 15 -13 28 -4 12 -12 22 -17 22 -5 0 -14 10
-20 23 -17 37 -37 69 -47 76 -5 3 -19 24 -30 46 -11 22 -33 53 -47 68 -15 16
-28 34 -29 40 -4 20 -166 273 -257 400 -18 27 -42 61 -51 75 -10 15 -25 36
-33 47 -9 11 -38 52 -65 90 -27 39 -57 79 -67 90 -10 11 -30 37 -43 57 -14 21
-28 38 -32 38 -5 0 -8 7 -8 15 0 25 -27 17 -34 -9 -3 -14 0 -52 8 -85 8 -34
12 -79 10 -101 -3 -24 -1 -40 6 -40 5 0 9 -4 8 -8 -4 -10 24 -82 31 -82 3 0 7
-12 8 -26 0 -15 6 -29 11 -33 6 -3 13 -29 16 -56 4 -28 11 -52 16 -53 7 -3 7
-9 -1 -18 -9 -12 -8 -19 10 -37 11 -13 21 -30 21 -38 0 -8 5 -20 10 -25 6 -6
13 -30 16 -55 3 -24 12 -51 20 -60 8 -8 14 -23 14 -32 0 -9 7 -20 15 -25 9 -4
18 -26 22 -48 3 -21 11 -46 19 -54 7 -8 16 -27 19 -43 4 -15 11 -30 16 -33 5
-3 7 -10 4 -15 -3 -5 1 -6 9 -3 19 7 42 -32 23 -39 -7 -3 -4 -6 6 -6 10 -1 15
-6 12 -11 -7 -12 20 -42 29 -33 6 6 11 -57 6 -86 -1 -8 6 -21 16 -28 10 -7 14
-13 8 -13 -5 0 -5 -4 1 -8 6 -4 23 -27 38 -50 26 -39 26 -43 8 -37 -18 5 -18
4 -8 -19 10 -21 13 -23 19 -8 5 14 7 13 7 -5 1 -12 9 -27 19 -32 15 -9 15 -10
-5 -11 -13 0 -23 -4 -23 -9 0 -5 8 -8 18 -7 12 1 17 -6 17 -24 0 -16 5 -24 14
-22 8 2 11 -3 8 -13 -4 -8 -2 -15 3 -15 5 0 7 -7 3 -15 -3 -9 2 -24 11 -34 9
-10 16 -22 15 -27 -1 -5 1 -18 5 -29 17 -45 19 -50 20 -60 1 -5 9 -24 18 -41
10 -17 14 -35 10 -39 -4 -5 -2 -5 5 -2 7 5 16 -7 24 -30 7 -21 11 -39 10 -41
-4 -6 28 -32 39 -32 8 0 10 -10 8 -25 -3 -15 1 -30 10 -37 8 -7 21 -28 29 -45
7 -18 18 -33 23 -33 6 0 10 -6 10 -14 0 -8 11 -24 24 -37 13 -13 22 -29 19
-36 -8 -22 6 -63 22 -63 8 0 15 -4 15 -10 0 -5 7 -10 15 -10 8 0 15 -9 15 -19
0 -10 7 -22 16 -25 8 -3 13 -10 10 -14 -3 -5 6 -25 20 -46 14 -20 22 -41 18
-48 -4 -6 -3 -9 2 -5 5 3 18 -2 29 -10 14 -11 16 -17 8 -20 -17 -6 -16 -23 0
-23 8 0 19 10 24 23 10 21 11 20 18 -15 4 -20 4 -41 0 -47 -3 -6 1 -11 9 -11
10 0 16 -9 16 -24 0 -13 7 -29 15 -36 8 -7 15 -20 15 -29 0 -14 -2 -14 -11 -1
-8 11 -9 9 -3 -10 4 -14 11 -28 17 -31 5 -4 10 -21 11 -38 1 -22 6 -31 17 -31
18 0 35 -30 22 -39 -4 -3 -15 -15 -23 -25 -14 -18 -13 -19 25 -13 22 4 54 3
70 -2 l30 -8 -35 -6 c-19 -3 -57 -8 -85 -11 -27 -3 -61 -8 -75 -11 -14 -2 -36
-7 -49 -10 -13 -2 -31 -11 -41 -20 -12 -11 -19 -12 -28 -3 -7 7 -12 18 -12 25
0 11 -11 17 -31 15 -3 0 -11 8 -18 20 -7 11 -8 17 -2 13 13 -7 13 2 1 30 -5
11 -9 14 -9 8 -1 -7 -5 -13 -11 -13 -5 0 -6 7 -3 17 4 10 2 14 -4 10 -6 -4
-13 7 -17 25 -3 17 -14 40 -23 50 -18 20 -4 25 27 8 16 -8 18 -8 14 5 -4 8
-16 15 -29 15 -27 0 -42 28 -19 37 12 5 12 8 -6 20 -20 14 -29 40 -10 28 15
-9 12 2 -6 30 -9 14 -20 22 -26 19 -11 -7 -37 25 -37 46 0 8 5 4 11 -10 l11
-25 5 23 c2 13 -1 28 -6 35 -20 27 -42 106 -45 159 -1 31 -5 51 -9 45 -6 -9
-8 -9 -8 0 0 15 -21 13 -32 -2 -4 -5 -8 0 -8 13 0 15 4 21 12 16 8 -5 9 8 4
52 -4 32 -11 61 -16 62 -6 2 -10 9 -10 17 0 7 -6 18 -14 24 -8 7 -18 27 -21
44 -15 76 -41 128 -62 127 -4 0 -8 10 -8 22 0 15 -9 24 -25 29 -14 4 -19 7
-11 8 7 1 11 7 8 16 -4 8 -1 17 5 21 7 5 3 10 -11 16 -12 4 -20 12 -17 17 3 5
-4 7 -16 3 -22 -5 -22 0 -6 67 2 8 -4 16 -12 18 -10 3 -11 2 -3 -4 7 -5 9 -14
4 -22 -6 -10 -11 -5 -16 18 -3 17 -11 31 -16 31 -6 0 -9 6 -7 13 3 16 -33 97
-44 97 -4 0 -8 9 -8 20 0 11 -4 20 -9 20 -5 0 -13 9 -16 20 -3 11 -13 20 -20
20 -8 0 -12 8 -10 20 2 10 -5 30 -15 43 -11 13 -17 27 -14 30 3 3 2 12 -2 19
-5 7 -9 20 -9 28 0 8 -6 14 -12 12 -8 -1 -13 8 -13 22 0 28 -37 116 -50 116
-4 0 -6 9 -3 20 3 11 0 20 -6 20 -6 0 -11 7 -11 15 0 8 -7 15 -15 15 -8 0 -15
6 -16 13 -3 54 -23 117 -37 117 -12 0 -36 51 -33 69 1 7 -2 10 -8 7 -13 -9
-31 26 -31 59 0 18 -12 37 -35 58 -19 17 -35 38 -35 46 0 9 -9 27 -20 41 -11
14 -20 33 -20 43 0 9 -5 17 -12 17 -6 0 -9 3 -5 6 3 3 -2 15 -12 25 -10 11
-23 37 -30 59 -6 22 -29 74 -51 116 -22 42 -40 82 -40 90 0 8 -4 14 -10 14 -5
0 -10 9 -10 19 0 11 -5 23 -10 26 -6 4 -23 35 -39 69 -39 86 -56 104 -119 117
-36 9 -57 19 -64 33 -6 12 -26 39 -45 60 -18 22 -33 43 -33 47 0 10 -65 103
-102 147 l-27 32 -945 0 -946 0 0 -2815z m5334 2590 c1 -68 -18 -68 -22 1 -2
41 0 55 9 52 7 -2 13 -24 13 -53z m-957 -30 c3 -9 3 -19 -1 -22 -8 -9 -37 18
-30 28 8 14 24 11 31 -6z m-717 -435 c0 -5 -4 -10 -10 -10 -5 0 -10 5 -10 10
0 6 5 10 10 10 6 0 10 -4 10 -10z m65 -17 c-22 -3 -43 -10 -47 -16 -5 -8 -8
-6 -8 6 0 14 8 17 48 15 47 -1 47 -1 7 -5z m-75 -23 c0 -5 -4 -10 -10 -10 -5
0 -10 5 -10 10 0 6 5 10 10 10 6 0 10 -4 10 -10z m50 -44 c0 -11 -19 -15 -25
-6 -3 5 1 10 9 10 9 0 16 -2 16 -4z m1650 -100 c0 -18 -60 -64 -91 -70 -13 -2
-28 -6 -34 -8 -5 -1 -11 2 -12 7 -1 6 5 9 13 7 8 -2 13 2 12 8 -2 7 8 19 22
28 13 9 21 11 16 5 -4 -7 -3 -13 2 -13 14 0 33 26 25 34 -4 4 0 4 9 1 9 -4 19
-2 23 4 9 15 15 14 15 -3z m-164 -91 c-3 -22 -59 -94 -73 -95 -7 0 -13 -4 -13
-10 0 -5 -6 -10 -14 -10 -8 0 -16 -6 -19 -12 -3 -7 -4 -3 -4 9 1 12 3 21 4 19
4 -4 71 58 68 62 -2 2 -23 -11 -48 -29 -29 -20 -44 -38 -42 -49 2 -9 -3 -17
-10 -17 -8 0 -11 5 -7 11 4 6 7 15 7 20 0 8 142 116 152 116 0 0 0 -7 -1 -15z
m-1181 -265 c3 -5 -1 -10 -10 -10 -9 0 -13 5 -10 10 3 6 8 10 10 10 2 0 7 -4
10 -10z m1105 -14 c0 -2 -8 -10 -17 -17 -16 -13 -17 -12 -4 4 13 16 21 21 21
13z m-1070 -62 c0 -8 -5 -12 -10 -9 -6 4 -8 11 -5 16 9 14 15 11 15 -7z m728
-81 c2 -29 0 -32 -11 -21 -15 15 -17 55 -2 55 5 0 11 -16 13 -34z m19 -25 c-3
-7 -5 -2 -5 12 0 14 2 19 5 13 2 -7 2 -19 0 -25z m250 -10 c-3 -8 -6 -5 -6 6
-1 11 2 17 5 13 3 -3 4 -12 1 -19z m56 -50 c-2 -5 3 -8 11 -8 10 0 13 -6 10
-15 -4 -10 0 -15 15 -15 14 0 23 -8 27 -25 3 -14 11 -22 18 -19 6 3 3 -1 -7
-9 -15 -13 -15 -16 -2 -27 8 -7 15 -9 15 -4 0 4 6 2 12 -4 10 -10 10 -15 -2
-22 -9 -5 -19 -5 -26 1 -6 5 -30 7 -53 4 -27 -3 -41 -1 -41 6 0 11 -66 8 -121
-6 -15 -4 -29 -2 -33 3 -3 5 -37 7 -77 4 l-71 -5 17 26 c31 48 81 68 173 71
27 1 42 6 42 14 0 7 5 10 10 7 6 -4 7 -11 4 -17 -5 -7 -1 -9 9 -5 10 3 17 2
17 -4 0 -6 7 -3 16 6 13 12 14 19 4 30 -7 8 -9 15 -5 15 4 0 2 6 -4 13 -6 8
-8 17 -5 20 8 8 53 -26 47 -35z m257 -602 c0 -2 -7 -7 -16 -10 -8 -3 -12 -2
-9 4 6 10 25 14 25 6z m-665 -26 c3 -5 2 -10 -4 -10 -5 0 -13 5 -16 10 -3 6
-2 10 4 10 5 0 13 -4 16 -10z m668 -52 c-4 -31 -10 -48 -19 -48 -8 0 -14 -6
-14 -12 0 -9 -3 -8 -10 2 -6 9 -5 17 2 21 6 4 8 14 5 24 -4 9 -3 14 3 10 6 -3
10 2 10 12 0 17 20 47 26 40 1 -1 0 -23 -3 -49z m371 13 c23 -26 11 -48 -68
-126 -34 -33 -85 -87 -114 -120 l-53 -60 32 50 c18 28 61 78 96 112 82 79 98
109 77 140 -12 19 -12 23 -1 23 8 0 22 -9 31 -19z m36 -92 c0 -6 -4 -7 -10 -4
-5 3 -10 11 -10 16 0 6 5 7 10 4 6 -3 10 -11 10 -16z m-35 -38 c-3 -6 -11 -11
-17 -11 -6 0 -6 6 2 15 14 17 26 13 15 -4z m145 -318 c0 5 6 5 13 0 15 -10 88
-12 82 -3 -3 4 19 -1 48 -10 29 -9 73 -20 100 -24 26 -4 47 -11 47 -16 0 -26
-17 -41 -63 -56 -79 -25 -75 -31 18 -26 55 3 85 1 85 -6 0 -6 -6 -13 -12 -16
-7 -3 1 -3 17 0 17 3 61 6 99 5 48 -2 72 2 77 11 6 9 9 9 9 1 0 -6 26 -17 58
-23 60 -13 126 -42 138 -61 5 -9 -1 -10 -22 -5 -16 4 -30 12 -32 17 -2 5 -12
9 -22 9 -9 0 -34 7 -53 15 -64 27 -212 16 -352 -26 -42 -12 -74 -24 -72 -26 3
-2 44 5 93 16 114 25 275 37 300 23 17 -10 15 -11 -14 -12 -20 0 -31 -4 -27
-10 3 -5 0 -10 -7 -11 -7 0 -2 -5 12 -11 32 -13 90 -16 82 -4 -3 5 2 7 11 3 9
-3 19 -2 22 3 4 6 -4 10 -17 11 -23 1 -23 1 2 8 20 6 30 2 49 -21 13 -15 33
-28 45 -28 12 0 35 -9 53 -19 17 -11 62 -32 100 -46 101 -39 273 -117 279
-127 6 -9 -14 -2 -101 37 -45 20 -68 25 -95 20 -71 -14 -217 -17 -280 -6 -72
13 -63 12 -250 7 -186 -4 -364 -22 -484 -47 -56 -12 -116 -24 -134 -26 -18 -3
-35 -9 -38 -14 -8 -14 -90 -10 -103 5 -14 17 5 30 144 103 149 78 81 63 -96
-21 -74 -35 -148 -66 -156 -66 -2 0 2 8 9 19 35 49 233 179 418 274 88 44 123
66 100 63 -55 -10 -244 -106 -373 -189 -209 -136 -233 -139 -57 -7 60 46 110
85 110 87 0 7 -69 -36 -142 -89 -38 -26 -68 -46 -68 -44 0 9 112 112 212 193
59 49 107 91 107 96 3 33 -186 -60 -256 -126 -63 -60 -69 -51 -10 15 45 50
188 128 297 163 30 10 62 21 70 25 8 4 18 2 22 -4 4 -6 8 -7 8 -3z m-1564
-308 c36 -129 37 -134 13 -90 -49 90 -92 265 -73 297 5 7 13 -13 21 -52 7 -36
25 -105 39 -155z m1934 180 c0 -8 -7 -15 -15 -15 -26 0 -18 20 13 29 1 1 2 -6
2 -14z m-2030 -254 c39 -67 70 -124 70 -127 0 -3 16 -30 35 -60 20 -31 32 -53
26 -50 -10 7 -69 95 -97 146 -10 19 -26 44 -36 55 -24 29 -78 134 -78 153 0
22 3 18 80 -117z m-155 18 c10 -14 1 -21 -19 -13 -9 3 -13 10 -10 15 7 12 21
11 29 -2z m-142 -106 c-7 -2 -19 -2 -25 0 -7 3 -2 5 12 5 14 0 19 -2 13 -5z
m2641 -57 c21 -9 47 -16 57 -16 11 0 19 -5 19 -10 0 -7 6 -7 19 0 23 12 61 13
61 3 -1 -16 -52 -45 -71 -40 -30 8 -24 -29 6 -40 19 -6 22 -11 14 -23 -8 -12
-12 -12 -16 -2 -4 10 -8 10 -19 1 -10 -8 -14 -8 -14 0 0 21 -16 11 -27 -19 -8
-21 -8 -30 1 -33 6 -2 -5 -3 -24 -2 -19 2 -35 4 -35 5 0 2 -13 4 -30 6 -16 1
-43 5 -60 8 -16 2 -35 5 -42 5 -6 1 -19 9 -28 18 -19 19 -65 27 -65 12 0 -6 5
-7 10 -4 6 3 10 -4 10 -17 l0 -22 -16 22 c-9 13 -13 29 -10 37 4 12 -5 15 -44
15 -27 0 -51 -4 -55 -10 -9 -14 -32 -1 -40 23 -3 13 -8 17 -11 10 -3 -7 -12
-9 -20 -6 -13 5 -13 7 -2 14 9 6 7 9 -9 9 -18 0 -22 -5 -20 -22 1 -17 -4 -24
-20 -26 -14 -2 -20 -8 -16 -18 3 -9 -2 -14 -17 -14 -19 0 -20 2 -10 15 11 13
8 15 -16 17 -47 2 -52 3 -60 11 -4 4 16 7 45 7 47 0 51 2 37 15 -17 17 -30 20
-21 4 4 -6 -2 -5 -13 2 -19 12 -19 14 -4 26 21 16 35 17 26 1 -4 -7 -3 -8 5
-4 6 4 9 11 6 16 -27 44 422 66 519 26z m-2671 -2 c15 -5 8 -16 -42 -61 -35
-32 -61 -65 -61 -76 0 -11 -18 -37 -41 -59 l-41 -40 6 29 c6 25 3 30 -24 40
-26 10 -33 9 -48 -8 -16 -16 -21 -17 -37 -5 -19 14 -27 39 -29 91 -1 26 5 33
54 58 30 16 69 33 85 37 30 8 144 4 178 -6z m1925 -95 c-7 -13 -21 -35 -32
-49 l-18 -25 6 25 c6 19 5 21 -3 10 -19 -27 -12 -39 30 -50 40 -11 43 -10 63
15 17 22 26 25 49 20 34 -9 57 -40 57 -78 0 -37 29 -138 45 -157 14 -17 27
-112 14 -104 -5 3 -9 0 -9 -5 0 -6 6 -11 14 -11 9 0 12 -7 9 -20 -5 -18 -7
-18 -17 -5 -6 8 -23 16 -38 17 -16 1 -28 6 -28 11 0 5 8 6 17 3 16 -6 16 -6 0
12 -9 10 -14 22 -10 27 5 4 2 5 -4 1 -8 -4 -13 -2 -13 6 0 8 -3 9 -8 3 -4 -5
-14 -11 -22 -13 -8 -2 -17 -8 -18 -13 -2 -5 -7 -7 -11 -5 -4 3 -7 -4 -7 -15 0
-10 3 -19 6 -19 10 0 35 20 26 20 -6 0 -1 6 10 14 12 10 22 11 29 5 7 -7 4
-14 -8 -21 -18 -9 -18 -10 0 -24 10 -7 13 -14 8 -14 -6 0 -16 5 -22 11 -6 6
-17 8 -23 4 -9 -6 -6 -12 11 -22 24 -14 24 -14 -6 -8 -29 6 -29 6 -10 -10 43
-35 -14 -5 -120 64 -167 110 -382 206 -435 196 -17 -3 -19 -1 -10 15 11 21 -4
38 -16 18 -21 -34 -54 -104 -54 -115 0 -17 25 -16 43 1 12 13 14 4 14 -62 0
-69 -1 -72 -8 -33 -12 62 -23 66 -14 6 6 -45 4 -53 -17 -70 -12 -11 -18 -13
-13 -5 16 24 13 132 -4 138 -10 3 -12 0 -8 -12 5 -13 3 -15 -11 -7 -14 8 -26
2 -56 -25 -66 -61 -159 -113 -247 -138 -99 -29 -181 -63 -191 -79 -6 -9 -8 -8
-8 2 0 7 -6 11 -13 8 -8 -3 -14 1 -14 8 0 7 6 11 13 8 8 -3 15 8 20 31 3 20
11 39 17 43 6 4 7 -7 3 -30 -6 -30 -4 -36 8 -31 8 3 12 12 9 20 -3 8 0 14 6
14 6 0 10 5 8 11 -1 6 5 14 13 16 9 3 11 1 5 -4 -20 -16 -13 -30 15 -30 25 0
27 2 13 12 -16 12 -9 40 8 30 5 -4 9 1 9 10 0 12 6 15 22 10 16 -6 20 -4 15 8
-7 19 18 41 35 31 7 -4 10 -4 6 1 -8 9 15 35 31 35 6 0 11 -6 11 -12 0 -9 3
-9 8 -2 4 6 16 14 27 17 20 7 20 7 1 -8 -11 -8 -16 -18 -12 -22 4 -5 14 1 22
12 13 17 13 21 -1 31 -14 10 -14 12 0 18 8 3 15 1 15 -5 0 -9 50 18 61 34 3 5
10 7 14 5 5 -1 12 10 16 26 6 21 5 26 -3 18 -8 -8 -15 -7 -25 4 -17 16 -7 38
14 30 8 -3 11 -1 8 5 -4 5 -2 15 4 22 6 7 6 18 1 26 -4 8 -6 21 -2 29 3 10 1
13 -6 8 -7 -4 -12 -2 -12 3 0 6 7 11 15 11 8 0 15 5 15 10 0 6 9 10 20 10 11
0 20 4 20 8 0 9 27 24 100 56 34 15 35 15 46 -9 6 -15 14 -21 20 -16 5 4 45
20 89 35 70 23 80 24 88 10 7 -13 21 -14 80 -9 40 4 75 9 79 11 5 3 8 1 8 -4
0 -5 7 -9 15 -9 8 0 12 4 9 9 -5 8 10 12 30 9 4 -1 15 4 24 11 13 11 15 11 8
-2 -5 -8 2 -5 15 7 28 27 35 23 17 -8z m66 -13 c-15 -29 -19 -32 -39 -22 -26
12 -22 34 9 46 41 17 47 12 30 -24z m-1884 4 c0 -13 -11 -13 -30 0 -12 8 -11
10 8 10 12 0 22 -4 22 -10z m-75 -19 c7 -12 -12 -24 -25 -16 -11 7 -4 25 10
25 5 0 11 -4 15 -9z m2960 -21 c-3 -5 -28 -16 -55 -25 -27 -9 -52 -21 -55 -26
-11 -16 -45 -10 -45 9 -1 13 -8 9 -30 -16 -17 -18 -30 -29 -30 -26 0 4 18 26
40 50 22 24 40 40 40 36 0 -5 -6 -14 -12 -21 -11 -11 -9 -12 11 -6 13 4 42 15
63 25 38 17 83 17 73 0z m-2680 -34 c28 4 53 7 58 6 4 -1 7 3 7 8 0 6 4 10 9
10 13 0 7 -33 -7 -38 -7 -2 -12 -13 -12 -23 0 -11 -4 -17 -10 -14 -5 3 -10 1
-10 -5 0 -7 -7 -9 -16 -6 -13 5 -14 4 -5 -7 9 -11 6 -14 -17 -12 -15 1 -40 -8
-57 -20 -16 -12 -38 -20 -47 -18 -12 3 -18 -2 -18 -14 0 -15 -2 -16 -10 -3 -5
8 -10 10 -10 4 0 -6 -11 -17 -25 -24 -13 -7 -22 -17 -19 -22 3 -4 0 -8 -6 -8
-7 0 -23 -9 -37 -20 -14 -11 -34 -20 -44 -20 -11 0 -19 -4 -19 -10 0 -5 -7
-10 -15 -10 -8 0 -15 -5 -15 -11 0 -10 -37 -49 -46 -49 -4 0 7 29 23 60 7 14
13 31 13 38 0 6 5 12 10 12 6 0 10 5 10 10 0 18 89 134 112 146 12 7 28 10 35
7 9 -4 11 0 7 11 -5 12 0 19 15 23 11 3 21 9 21 14 0 5 17 2 38 -6 27 -12 50
-14 87 -9z m-695 -24 c-1 -17 -19 -34 -29 -28 -8 5 -8 13 -1 27 10 18 30 18
30 1z m3085 -49 c-9 -8 -18 -13 -21 -10 -8 8 19 36 29 30 4 -2 0 -11 -8 -20z
m43 -23 c-22 -30 -35 -41 -22 -17 9 16 36 47 41 47 2 0 -6 -13 -19 -30z
m-3106 -2 c-7 -7 -12 -8 -12 -2 0 14 12 26 19 19 2 -3 -1 -11 -7 -17z m3173
-29 c0 -7 -15 -16 -32 -20 -37 -7 -37 -8 -22 25 9 19 16 23 33 17 11 -5 21
-14 21 -22z m-2395 -9 c0 -5 -4 -10 -10 -10 -5 0 -10 5 -10 10 0 6 5 10 10 10
6 0 10 -4 10 -10z m2655 -10 c-3 -5 -12 -10 -19 -10 -7 0 -33 -11 -58 -24 -29
-15 -50 -21 -59 -15 -23 14 11 39 67 48 70 12 76 12 69 1z m-2669 -88 c-11
-10 -13 3 -7 43 l6 40 3 -39 c2 -21 1 -41 -2 -44z m1078 53 c-4 -8 -11 -15
-16 -15 -6 0 -5 6 2 15 7 8 14 15 16 15 2 0 1 -7 -2 -15z m203 -46 c143 -74
363 -227 363 -251 0 -5 -10 -3 -22 4 -13 7 -26 11 -30 10 -5 -1 -8 6 -8 15 -1
16 -2 17 -13 2 -10 -14 -14 -14 -25 -3 -7 8 -8 14 -3 14 6 0 8 7 5 15 -4 8
-15 15 -25 15 -17 0 -18 -3 -9 -20 6 -11 7 -20 1 -20 -5 0 -12 7 -15 16 -4 10
-14 14 -26 11 -21 -6 -26 3 -10 19 14 14 -41 74 -68 74 -12 0 -22 6 -22 14 0
8 -14 19 -32 25 -17 6 -39 18 -49 27 -9 8 -20 14 -25 13 -21 -4 -35 2 -29 11
3 6 2 10 -2 10 -5 0 -24 11 -43 25 -54 40 -18 29 87 -26z m-1297 -19 c12 -7
12 -12 2 -22 -9 -9 -15 -9 -24 0 -7 7 -8 12 -2 12 5 0 2 5 -6 10 -13 9 -13 10
0 10 8 0 22 -5 30 -10z m68 -115 c-3 -3 -18 11 -33 32 l-28 38 34 -32 c18 -18
30 -35 27 -38z m582 61 c0 -2 -7 -7 -16 -10 -8 -3 -12 -2 -9 4 6 10 25 14 25
6z m-168 -23 c-6 -2 -9 -10 -6 -15 4 -7 2 -8 -4 -4 -18 11 -14 26 6 25 10 0
12 -3 4 -6z m128 -3 c0 -5 -2 -10 -4 -10 -3 0 -8 5 -11 10 -3 6 -1 10 4 10 6
0 11 -4 11 -10z m-221 -95 c-1 -30 -3 -55 -4 -55 -2 0 -18 7 -36 15 -29 12
-26 21 4 16 5 -1 6 3 2 9 -3 5 -1 10 4 10 6 0 11 3 10 8 -2 10 12 52 17 52 3
0 4 -25 3 -55z m695 -105 c4 -46 4 -82 2 -79 -7 7 -14 59 -20 159 -6 107 8 42
18 -80z m704 135 c-3 -3 -9 2 -12 12 -6 14 -5 15 5 6 7 -7 10 -15 7 -18z
m-317 -8 c-13 -13 -26 -3 -16 12 3 6 11 8 17 5 6 -4 6 -10 -1 -17z m-541 -17
c0 -5 -8 -10 -17 -10 -15 0 -16 2 -3 10 19 12 20 12 20 0z m885 -20 c8 -16 15
-32 15 -37 0 -10 -25 27 -33 50 -10 27 1 20 18 -13z m215 -75 c63 -36 120 -65
127 -65 7 0 13 -5 13 -11 0 -6 -44 13 -97 42 -112 60 -173 99 -193 126 -9 11
-5 10 11 -5 14 -12 77 -51 139 -87z m-1566 80 c-4 -8 -8 -15 -10 -15 -2 0 -4
7 -4 15 0 8 4 15 10 15 5 0 7 -7 4 -15z m243 -1 c-3 -3 -12 -4 -19 -1 -8 3 -5
6 6 6 11 1 17 -2 13 -5z m-722 -14 c3 -5 -1 -10 -9 -10 -9 0 -16 5 -16 10 0 6
4 10 9 10 6 0 13 -4 16 -10z m685 6 c0 -2 -7 -7 -16 -10 -8 -3 -12 -2 -9 4 6
10 25 14 25 6z m-560 -26 c0 -5 -7 -10 -16 -10 -8 0 -12 5 -9 10 3 6 10 10 16
10 5 0 9 -4 9 -10z m1220 -15 c0 -8 -7 -15 -15 -15 -13 0 -14 3 -3 15 16 18
18 18 18 0z m65 5 c3 -5 1 -10 -4 -10 -6 0 -11 5 -11 10 0 6 2 10 4 10 3 0 8
-4 11 -10z m-1052 -16 c25 -6 39 -34 16 -34 -5 0 -7 4 -4 10 3 6 -1 7 -9 4
-18 -7 -12 -24 9 -24 8 0 11 -7 8 -19 -5 -21 26 -39 37 -21 5 8 9 6 13 -4 5
-13 11 -14 32 -4 22 10 28 9 36 -3 8 -14 10 -12 13 14 1 11 80 56 102 57 5 0
10 -11 10 -24 0 -14 -4 -22 -8 -20 -5 3 -6 9 -3 14 3 5 1 11 -4 14 -5 3 -12
-1 -15 -10 -4 -9 -13 -14 -21 -10 -24 9 -17 -2 11 -17 l25 -13 -26 -12 c-24
-11 -27 -10 -32 8 -3 11 -10 20 -15 20 -5 0 -6 -5 -2 -11 3 -6 0 -16 -7 -21
-11 -8 -10 -9 4 -4 41 13 12 -12 -48 -42 -64 -31 -65 -31 -76 -11 -6 11 -8 27
-5 34 10 27 -9 25 -39 -5 l-30 -29 -30 19 c-17 11 -25 20 -20 20 6 -1 19 -7
29 -15 17 -13 21 -12 32 3 11 14 9 21 -9 40 l-22 24 28 -7 c40 -10 36 17 -8
51 -37 28 -46 49 -17 40 9 -3 29 -8 45 -12z m197 -4 c-14 -11 -32 -20 -41 -20
-10 0 -31 -16 -48 -35 -17 -20 -31 -31 -31 -26 0 17 69 75 103 88 44 16 46 15
17 -7z m-326 -19 c-2 -3 -12 3 -22 13 -16 17 -16 18 5 5 12 -7 20 -15 17 -18z
m466 8 c0 -6 -4 -7 -10 -4 -5 3 -10 11 -10 16 0 6 5 7 10 4 6 -3 10 -11 10
-16z m845 7 c-47 -12 -49 -13 -25 -23 l25 -10 -32 -7 c-18 -4 -35 -12 -38 -17
-4 -5 -20 -3 -38 4 -18 8 -38 12 -46 9 -9 -3 -11 0 -6 7 4 7 13 10 21 7 8 -3
14 -1 14 4 0 12 7 12 -87 -1 -43 -6 -94 -17 -113 -25 -28 -11 -31 -11 -18 0
10 7 15 16 11 19 -3 4 1 7 11 7 9 0 15 3 13 8 -3 4 32 8 77 9 44 1 113 6 151
11 104 14 141 13 80 -2z m-558 -56 c29 -12 57 -28 63 -35 6 -7 -9 -3 -32 9
-24 12 -80 33 -125 46 -46 14 -83 28 -83 32 0 9 112 -24 177 -52z m-1206 33
c36 -17 57 -42 25 -30 -8 3 -32 11 -53 16 -21 6 -45 15 -53 21 -27 18 40 12
81 -7z m499 -9 c0 -2 -7 -4 -15 -4 -8 0 -15 4 -15 10 0 5 7 7 15 4 8 -4 15 -8
15 -10z m1428 -5 c12 -19 11 -19 -8 -9 -11 6 -20 15 -20 20 0 17 15 11 28 -11z
m-2112 -4 c-16 -16 -46 -20 -46 -7 0 15 13 22 37 22 22 0 23 -2 9 -15z m529 4
c11 -17 -1 -21 -15 -4 -8 9 -8 15 -2 15 6 0 14 -5 17 -11z m615 -25 c0 -8 -5
-12 -10 -9 -6 4 -8 11 -5 16 9 14 15 11 15 -7z m405 -20 c-8 -16 -11 -30 -5
-32 5 -2 6 -11 3 -20 -6 -16 -5 -15 14 1 28 24 38 21 13 -5 -11 -12 -20 -25
-20 -30 0 -7 75 -132 106 -175 9 -13 14 -23 11 -23 -8 0 -107 149 -130 199
-18 36 -21 54 -15 79 5 18 13 30 18 27 6 -4 10 -1 10 6 0 7 2 10 5 7 3 -3 -1
-18 -10 -34z m-1345 11 c6 -8 10 -19 8 -24 -1 -5 -11 2 -21 15 -19 26 -8 34
13 9z m505 -25 c3 -5 -1 -10 -9 -10 -9 0 -16 5 -16 10 0 6 4 10 9 10 6 0 13
-4 16 -10z m1465 0 c0 -5 -5 -10 -11 -10 -5 0 -7 5 -4 10 3 6 8 10 11 10 2 0
4 -4 4 -10z m510 -20 c0 -5 -5 -10 -11 -10 -5 0 -7 5 -4 10 3 6 8 10 11 10 2
0 4 -4 4 -10z m-2100 -81 c47 -45 78 -76 68 -70 -12 9 -18 9 -23 1 -5 -8 -12
-4 -22 9 -8 12 -20 19 -26 15 -7 -3 -4 1 6 9 15 12 15 16 3 20 -8 3 -17 3 -19
-1 -2 -4 -3 -2 -1 4 1 6 -8 17 -21 24 -14 7 -22 17 -19 21 3 5 -6 14 -20 21
-24 10 -36 28 -18 28 4 0 45 -37 92 -81z m831 74 c44 -4 57 -9 44 -14 -17 -7
-18 -8 -2 -8 10 -1 17 -9 17 -20 0 -11 6 -22 13 -24 7 -4 6 -6 -5 -6 -9 -1
-19 -7 -22 -13 -5 -10 -7 -10 -12 0 -3 6 -12 12 -20 12 -9 0 -13 4 -10 9 3 5
0 11 -8 14 -9 4 -12 0 -9 -12 3 -12 -3 -17 -22 -19 -28 -2 -62 22 -46 32 5 4
16 -1 24 -9 20 -19 27 -19 27 0 0 8 -6 15 -14 15 -8 0 -17 4 -20 9 -3 5 0 8 7
7 6 0 13 4 14 9 2 6 -40 11 -110 11 -96 1 -116 -1 -142 -18 l-30 -20 28 26
c26 24 34 26 131 26 57 0 132 -3 167 -7z m-981 -10 c-19 -3 -39 -8 -43 -12 -4
-4 6 -6 23 -3 37 5 38 0 0 -38 -31 -31 -50 -38 -50 -18 0 7 -8 1 -17 -12 -31
-45 -47 -60 -63 -60 -13 0 -13 -1 0 -10 12 -8 9 -10 -12 -10 -21 0 -26 -4 -21
-17 4 -10 2 -14 -4 -10 -6 4 -9 -6 -8 -23 2 -26 0 -28 -14 -17 -10 8 -13 8 -8
0 12 -19 -10 -24 -24 -6 -10 12 -10 14 -1 9 7 -4 12 -2 12 6 0 8 -12 13 -28
13 -21 0 -29 -5 -30 -20 -1 -16 1 -17 8 -5 5 8 10 12 10 8 0 -3 3 -14 7 -24 6
-16 4 -16 -25 2 -18 10 -32 22 -32 27 0 5 -7 4 -15 -3 -13 -11 -14 -10 -9 4 3
9 10 16 15 16 5 0 9 7 9 15 0 8 4 15 8 15 5 0 9 6 10 13 2 32 13 64 32 89 11
15 20 33 20 41 0 18 82 32 195 33 50 1 74 -1 55 -3z m834 -13 c17 -6 26 -6 26
0 0 6 5 10 10 10 16 0 12 -37 -5 -44 -8 -3 -15 -9 -14 -13 4 -24 -3 -39 -19
-40 -30 -2 -47 -8 -54 -18 -9 -13 -22 1 -13 15 4 6 14 9 24 5 12 -5 13 -4 4 6
-10 10 -16 9 -28 -1 -12 -10 -18 -11 -28 -1 -9 10 -8 11 7 5 14 -5 17 -4 12 5
-4 6 -4 11 1 10 19 -3 33 2 33 12 0 7 -7 8 -17 4 -10 -4 -24 -8 -32 -9 -8 -2
-18 -13 -23 -25 -4 -12 -4 -20 0 -17 4 2 14 1 22 -5 13 -7 12 -9 -2 -9 -10 0
-18 -4 -18 -9 0 -5 -6 -11 -13 -14 -14 -5 -15 40 -2 65 4 7 -3 2 -14 -12 -15
-18 -19 -20 -15 -6 6 16 4 17 -14 7 -15 -8 -22 -8 -22 -1 0 5 6 10 13 10 8 0
7 4 -3 10 -22 14 -30 12 -24 -7 5 -15 4 -15 -5 -3 -7 11 -6 19 6 33 10 10 19
13 23 8 3 -7 23 -2 50 12 51 26 97 32 134 17z m1673 4 c-3 -3 -12 -4 -19 -1
-8 3 -5 6 6 6 11 1 17 -2 13 -5z m-40 -10 c-3 -3 -12 -4 -19 -1 -8 3 -5 6 6 6
11 1 17 -2 13 -5z m-1967 -14 c0 -5 -8 -10 -17 -10 -15 0 -16 2 -3 10 19 12
20 12 20 0z m600 -11 c0 -5 -4 -9 -10 -9 -5 0 -10 7 -10 16 0 8 5 12 10 9 6
-3 10 -10 10 -16z m-825 -38 c-3 -6 -11 -11 -17 -11 -6 0 -6 6 2 15 14 17 26
13 15 -4z m173 -22 c-3 -8 -7 -3 -11 10 -4 17 -3 21 5 13 5 -5 8 -16 6 -23z
m2395 24 c-7 -2 -19 -2 -25 0 -7 3 -2 5 12 5 14 0 19 -2 13 -5z m-98 -24 c-69
-21 -75 -22 -75 -10 0 11 64 29 105 29 23 0 15 -4 -30 -19z m-2565 -66 c0 -7
-56 35 -71 54 -8 9 5 2 29 -17 23 -18 42 -35 42 -37z m183 37 c-3 -11 -12 -20
-19 -20 -11 0 -10 5 3 20 10 11 18 20 19 20 1 0 0 -9 -3 -20z m117 -116 c0 -5
-5 -3 -11 3 -6 6 -19 9 -27 5 -14 -5 -15 -4 -2 10 12 12 17 13 27 2 7 -7 13
-16 13 -20z m37 10 c-3 -3 -12 -4 -19 -1 -8 3 -5 6 6 6 11 1 17 -2 13 -5z
m791 -82 c13 -13 17 -22 10 -20 -7 3 -28 27 -46 54 -18 27 -23 36 -10 19 13
-16 33 -40 46 -53z m-1268 42 c-25 -7 -88 -19 -140 -28 -184 -30 -175 -29
-161 -12 7 8 25 14 40 14 16 -1 34 3 42 8 8 4 27 7 43 5 18 -2 26 1 22 8 -5 7
3 9 22 5 16 -3 32 -2 35 2 3 5 36 9 73 9 l68 0 -44 -11z m1333 -71 c-7 -2 -19
-2 -25 0 -7 3 -2 5 12 5 14 0 19 -2 13 -5z m50 -10 c-7 -2 -19 -2 -25 0 -7 3
-2 5 12 5 14 0 19 -2 13 -5z m1657 -643 c-8 -5 -19 -10 -25 -10 -5 0 -3 5 5
10 8 5 20 10 25 10 6 0 3 -5 -5 -10z m-2709 -36 c11 -13 9 -14 -12 -9 -17 4
-34 -2 -58 -20 -19 -14 -42 -25 -52 -25 -9 0 -28 -9 -42 -20 -14 -11 -45 -27
-69 -35 -24 -9 -48 -21 -53 -28 -15 -17 -52 -37 -70 -37 -17 0 -56 -20 -66
-34 -4 -4 -5 -18 -2 -30 4 -19 3 -19 -7 -4 -10 17 -13 17 -41 2 -54 -27 -43
-7 14 30 52 33 424 225 438 226 4 0 12 -7 20 -16z m2439 -14 c0 -5 -4 -10 -10
-10 -5 0 -10 5 -10 10 0 6 5 10 10 10 6 0 10 -4 10 -10z m-2167 -82 c86 -28
156 -53 154 -55 -2 -2 -69 17 -148 42 -79 26 -159 51 -176 56 -18 6 -33 13
-33 15 0 6 5 5 203 -58z m-779 -50 c-4 -6 -10 -5 -15 3 -14 22 -10 33 6 19 8
-7 12 -17 9 -22z m1024 -29 c42 -16 22 -18 -23 -2 -25 8 -45 17 -45 20 0 4 25
-2 68 -18z m-904 -159 l7 -25 -14 25 c-8 14 -17 36 -21 50 l-7 25 14 -25 c8
-14 17 -36 21 -50z m523 -167 c68 -21 120 -39 115 -41 -11 -3 -220 56 -242 69
-28 16 2 9 127 -28z m-184 16 c-13 -13 -184 -72 -190 -65 -2 2 33 17 79 33 46
17 90 33 98 36 23 8 25 8 13 -4z m-213 -76 c-8 -3 -18 -10 -21 -15 -4 -6 -15
-8 -25 -6 -17 4 -16 6 6 16 14 6 32 11 40 11 13 -1 13 -1 0 -6z m593 0 c-7 -2
-19 -2 -25 0 -7 3 -2 5 12 5 14 0 19 -2 13 -5z m44 -9 c-3 -3 -12 -4 -19 -1
-8 3 -5 6 6 6 11 1 17 -2 13 -5z"/>
<path d="M5245 4710 c-3 -5 -2 -10 4 -10 5 0 13 5 16 10 3 6 2 10 -4 10 -5 0
-13 -4 -16 -10z"/>
<path d="M5151 4646 c-9 -11 -9 -16 1 -22 7 -4 10 -4 6 1 -4 4 0 14 10 21 9 7
12 14 6 14 -6 0 -17 -6 -23 -14z"/>
<path d="M6468 2683 c7 -3 16 -2 19 1 4 3 -2 6 -13 5 -11 0 -14 -3 -6 -6z"/>
<path d="M5797 2123 c-3 -5 11 -9 31 -10 29 -1 33 0 17 7 -26 11 -43 12 -48 3z"/>
<path d="M5886 2086 c-10 -15 -12 -27 -6 -31 6 -3 10 -5 11 -3 0 2 2 12 4 22
2 10 10 23 17 27 8 6 9 9 2 9 -7 0 -19 -11 -28 -24z"/>
<path d="M5966 2085 c4 -8 10 -15 15 -15 4 0 6 7 3 15 -4 8 -10 15 -15 15 -4
0 -6 -7 -3 -15z"/>
<path d="M5080 2079 c0 -5 5 -7 10 -4 6 3 10 8 10 11 0 2 -4 4 -10 4 -5 0 -10
-5 -10 -11z"/>
<path d="M5830 2063 c0 -4 5 -15 10 -23 8 -13 10 -13 10 2 0 9 -4 20 -10 23
-5 3 -10 3 -10 -2z"/>
<path d="M5992 2040 c0 -14 2 -19 5 -12 2 6 2 18 0 25 -3 6 -5 1 -5 -13z"/>
<path d="M4910 1959 c0 -5 -5 -7 -12 -3 -7 4 -8 3 -4 -5 6 -9 11 -9 22 0 17
14 18 19 4 19 -5 0 -10 -5 -10 -11z"/>
<path d="M4818 1753 c7 -3 16 -2 19 1 4 3 -2 6 -13 5 -11 0 -14 -3 -6 -6z"/>
<path d="M4715 1740 c-3 -5 -2 -10 4 -10 5 0 13 5 16 10 3 6 2 10 -4 10 -5 0
-13 -4 -16 -10z"/>
<path d="M4682 1709 c-14 -22 -3 -32 19 -15 13 9 14 14 4 22 -9 9 -15 7 -23
-7z"/>
<path d="M5708 1823 c7 -3 16 -2 19 1 4 3 -2 6 -13 5 -11 0 -14 -3 -6 -6z"/>
<path d="M4450 1596 c0 -2 7 -7 16 -10 8 -3 12 -2 9 4 -6 10 -25 14 -25 6z"/>
<path d="M5258 1693 c7 -3 16 -2 19 1 4 3 -2 6 -13 5 -11 0 -14 -3 -6 -6z"/>
<path d="M4233 1655 c0 -8 4 -12 9 -9 5 3 6 10 3 15 -9 13 -12 11 -12 -6z"/>
<path d="M5095 1620 c-3 -5 -2 -10 4 -10 5 0 13 5 16 10 3 6 2 10 -4 10 -5 0
-13 -4 -16 -10z"/>
<path d="M3672 5003 c2 -9 8 -18 14 -20 16 -5 13 25 -3 32 -10 3 -13 -1 -11
-12z"/>
<path d="M4571 4864 c-11 -13 -10 -16 8 -21 11 -3 18 -10 14 -15 -3 -6 8 0 26
13 28 20 30 24 14 31 -28 11 -47 8 -62 -8z"/>
<path d="M4620 4826 c0 -2 7 -6 15 -10 8 -3 15 -1 15 4 0 6 -7 10 -15 10 -8 0
-15 -2 -15 -4z"/>
<path d="M3870 4500 c0 -5 5 -10 11 -10 5 0 7 5 4 10 -3 6 -8 10 -11 10 -2 0
-4 -4 -4 -10z"/>
<path d="M3862 4450 c14 -22 24 -19 15 5 -4 8 -11 15 -17 15 -6 0 -6 -7 2 -20z"/>
<path d="M4836 4307 c3 -10 9 -15 12 -12 3 3 0 11 -7 18 -10 9 -11 8 -5 -6z"/>
<path d="M4030 4260 c0 -6 4 -9 9 -5 5 3 12 -2 14 -10 4 -12 5 -12 3 1 -1 19
-26 32 -26 14z"/>
</g>
</svg>
