<?xml version="1.0" standalone="no"?>
<!DOCTYPE svg PUBLIC "-//W3C//DTD SVG 20010904//EN"
 "http://www.w3.org/TR/2001/REC-SVG-20010904/DTD/svg10.dtd">
<svg version="1.0" xmlns="http://www.w3.org/2000/svg"
 width="108.000000pt" height="81.000000pt" viewBox="0 0 108.000000 81.000000"
 preserveAspectRatio="xMidYMid meet">

<g transform="translate(0.000000,81.000000) scale(0.100000,-0.100000)"
fill="#000000" stroke="none">
<path d="M782 722 c9 -13 32 -31 51 -41 35 -18 36 -18 26 0 -5 11 -17 19 -26
19 -9 0 -28 10 -42 23 l-24 22 15 -23z"/>
<path d="M300 716 c-6 -8 -21 -16 -32 -18 -12 -2 -23 -9 -25 -15 -7 -19 57 10
69 31 11 20 5 21 -12 2z"/>
<path d="M267 649 c-10 -6 -21 -8 -24 -5 -9 8 -43 -13 -42 -27 0 -9 2 -9 6 0
3 8 14 11 27 7 14 -3 31 2 47 15 25 21 17 28 -14 10z"/>
<path d="M812 644 c10 -10 33 -19 53 -19 39 -2 33 17 -7 20 -13 1 -32 6 -43
10 -19 7 -19 7 -3 -11z"/>
<path d="M237 598 c-10 -5 -25 -7 -33 -4 -10 4 -14 1 -12 -6 7 -19 31 -21 53
-4 24 17 17 29 -8 14z"/>
<path d="M840 601 c0 -15 39 -33 56 -27 8 3 14 10 14 15 0 6 -6 8 -14 5 -8 -3
-24 -1 -35 6 -13 7 -21 7 -21 1z"/>
<path d="M215 540 c-10 -11 -13 -20 -7 -20 6 0 16 9 22 20 6 11 9 20 7 20 -2
0 -12 -9 -22 -20z"/>
<path d="M870 540 c6 -11 15 -20 20 -20 17 0 11 15 -11 28 -19 12 -19 11 -9
-8z"/>
<path d="M940 550 c-9 -6 -10 -10 -3 -10 6 0 15 5 18 10 8 12 4 12 -15 0z"/>
<path d="M160 520 c0 -5 7 -10 15 -10 8 0 15 5 15 10 0 6 -7 10 -15 10 -8 0
-15 -4 -15 -10z"/>
<path d="M910 520 c0 -5 7 -10 15 -10 8 0 15 5 15 10 0 6 -7 10 -15 10 -8 0
-15 -4 -15 -10z"/>
<path d="M195 484 c-11 -8 -30 -13 -42 -11 -15 3 -20 0 -16 -10 4 -10 14 -12
32 -8 14 4 26 7 26 8 1 1 7 10 14 20 16 21 12 21 -14 1z"/>
<path d="M891 482 c7 -12 22 -23 33 -26 21 -5 56 19 56 38 0 6 -5 3 -11 -6
-13 -22 -38 -23 -68 -2 -22 16 -22 16 -10 -4z"/>
<path d="M90 442 c0 -19 44 -59 60 -54 21 6 50 33 50 45 0 6 -10 1 -23 -11
-30 -28 -41 -28 -66 4 -12 15 -21 22 -21 16z"/>
<path d="M987 424 c-22 -29 -38 -30 -62 -4 -10 11 -20 18 -23 15 -3 -3 3 -14
13 -25 25 -28 61 -25 81 5 22 33 14 40 -9 9z"/>
<path d="M901 387 c-1 -5 4 -17 9 -27 12 -23 50 -46 50 -31 0 5 -8 12 -19 16
-10 3 -23 15 -29 28 -6 12 -11 18 -11 14z"/>
<path d="M180 364 c-27 -31 -46 -35 -74 -13 -31 24 -35 11 -6 -16 25 -23 65
-12 88 23 16 25 11 30 -8 6z"/>
<path d="M991 349 c-13 -11 -21 -23 -17 -26 4 -4 16 3 28 15 28 28 20 36 -11
11z"/>
<path d="M60 323 c1 -5 9 -18 19 -30 19 -23 61 -32 61 -13 0 6 -9 10 -20 10
-11 0 -29 9 -40 20 -11 11 -20 17 -20 13z"/>
<path d="M1022 310 c-7 -11 -23 -20 -37 -20 -14 0 -25 -4 -25 -10 0 -20 46 -9
63 16 11 14 17 27 15 29 -2 2 -9 -5 -16 -15z"/>
<path d="M183 305 c-7 -7 -18 -15 -25 -18 -7 -2 -10 -7 -7 -11 3 -4 17 2 30
13 13 11 22 21 19 24 -3 3 -10 -1 -17 -8z"/>
<path d="M902 310 c5 -16 48 -46 48 -34 0 5 -12 18 -27 28 -16 12 -24 14 -21
6z"/>
<path d="M180 245 c-8 -9 -8 -15 -2 -15 12 0 26 19 19 26 -2 2 -10 -2 -17 -11z"/>
<path d="M900 252 c0 -12 19 -26 26 -19 2 2 -2 10 -11 17 -9 8 -15 8 -15 2z"/>
<path d="M90 230 c14 -13 33 -20 47 -17 12 2 24 -1 26 -7 2 -6 3 -4 3 4 -1 9
-15 17 -36 20 -20 4 -42 10 -50 14 -8 4 -4 -2 10 -14z"/>
<path d="M1010 240 c-8 -5 -26 -10 -40 -10 -15 0 -31 -9 -39 -22 -13 -21 -13
-22 3 -9 10 8 28 15 42 16 13 0 32 8 41 18 19 19 16 22 -7 7z"/>
<path d="M207 213 c-4 -3 -7 -11 -7 -17 0 -6 5 -5 12 2 6 6 9 14 7 17 -3 3 -9
2 -12 -2z"/>
<path d="M880 212 c0 -12 19 -26 26 -19 2 2 -2 10 -11 17 -9 8 -15 8 -15 2z"/>
<path d="M110 171 c0 -5 10 -13 23 -17 32 -11 78 -11 73 1 -2 6 -15 9 -30 7
-14 -1 -35 2 -46 8 -12 7 -20 7 -20 1z"/>
<path d="M970 170 c-8 -6 -27 -7 -41 -4 -17 3 -28 0 -31 -8 -4 -9 3 -13 21
-13 35 1 71 14 71 26 0 11 -1 11 -20 -1z"/>
<path d="M204 119 c-3 -6 -17 -9 -30 -6 -13 2 -24 0 -24 -4 0 -5 22 -8 49 -7
39 2 48 5 39 15 -13 16 -25 17 -34 2z"/>
<path d="M862 118 c-7 -7 -12 -16 -12 -22 0 -6 4 -6 11 1 6 6 27 10 47 8 21
-1 28 0 17 2 -11 3 -24 9 -29 14 -13 12 -20 11 -34 -3z"/>
<path d="M245 74 c-11 -8 -28 -13 -37 -10 -10 2 -18 0 -18 -5 0 -12 37 -11 61
1 14 8 27 7 49 -5 16 -9 30 -12 30 -7 0 7 -11 14 -60 39 -3 1 -14 -4 -25 -13z"/>
<path d="M798 72 c-39 -23 -35 -36 4 -16 24 13 36 14 50 5 22 -14 58 -15 58
-1 0 5 -7 7 -15 4 -8 -4 -26 1 -40 10 -29 19 -24 19 -57 -2z"/>
</g>
</svg>
